<svg xmlns="http://www.w3.org/2000/svg" viewBox="0 0 645.824 185.113">
  <title>icon-with-name-color</title>
  <g>
    <path d="M834.912,145.863H573.022V130.457H511.4v15.406H434.375V238.3H680.859v15.4H742.48V238.3h92.432ZM511.4,192.079H496V176.673h-15.4v30.811H511.4v15.405H449.78v-61.62H511.4Zm77.026,30.81h-15.4v-30.81H557.617v30.81H526.806V145.863h30.811v30.81h15.405v-15.4h15.4Zm77.027,0H603.833v-61.62h61.621Zm77.026,0H727.074V238.3h-30.81V222.889h-15.4v-61.62H742.48Zm77.026-30.81H804.1v15.405h15.4v15.405h-61.62v-61.62h61.62Z" transform="translate(-189.088 -99.444)" style="fill: #cb3837"/>
    <rect x="584.202" y="77.23" width="15.406" height="30.811" style="fill: #cb3837"/>
    <rect x="507.176" y="77.23" width="15.406" height="30.811" style="fill: #cb3837"/>
    <rect x="430.15" y="77.23" width="15.406" height="30.811" style="fill: #cb3837"/>
    <polygon points="169.143 185.113 245.924 138.835 245.924 46.278 169.143 92.556 169.143 185.113" style="fill: #7c2424"/>
    <polygon points="169.143 0 92.363 46.278 116.549 60.856 193.329 14.578 169.143 0" style="fill: #f24444"/>
    <polygon points="245.924 46.278 219.579 30.399 142.846 76.648 142.846 76.706 169.143 92.556 245.924 46.278" style="fill: #f24444"/>
    <rect x="46.216" y="77.23" width="15.405" height="30.811" style="fill: #cb3837"/>
    <path d="M358.232,192l-26.3-15.85v44.457l-26.3-15.881V160.3l-24.186-14.577v.141H189.088V253.7h61.621V238.3h30.769l76.754,46.261Zm-92.118,30.889H235.3V238.3H204.493V161.269h61.621Z" transform="translate(-189.088 -99.444)" style="fill: #cb3837"/>
  </g>
</svg>
