<svg xmlns="http://www.w3.org/2000/svg" viewBox="0 0 1024 1024">
  <title>icon-color</title>
  <g>
    <polygon points="512 1024 1024 768 1024 256 512 512 512 1024" style="fill: #7c2424"/>
    <polygon points="336.64 670.246 161.28 582.4 161.28 336.64 0 256 0 768 512 1024 512 512 336.64 424.32 336.64 670.246" style="fill: #cb3837"/>
    <polygon points="512 0 0 256 161.28 336.64 673.28 80.64 512 0" style="fill: #f24444"/>
    <polygon points="1024 256 848.32 168.16 336.64 424 336.64 424.32 512 512 1024 256" style="fill: #f24444"/>
    <polygon points="673.28 80.64 161.28 336.64 161.28 582.4 336.64 670.246 336.64 424.32 336.64 424 848.32 168.16 673.28 80.64" style="fill: #fff"/>
  </g>
</svg>
